<?xml version="1.0" standalone="no"?>
<!DOCTYPE svg PUBLIC "-//W3C//DTD SVG 20010904//EN"
 "http://www.w3.org/TR/2001/REC-SVG-20010904/DTD/svg10.dtd">
<svg version="1.0" xmlns="http://www.w3.org/2000/svg"
 width="640.000000pt" height="640.000000pt" viewBox="0 0 640.000000 640.000000"
 preserveAspectRatio="xMidYMid meet">
<metadata>
Created by potrace 1.11, written by Peter Selinger 2001-2013
</metadata>
<g transform="translate(0.000000,640.000000) scale(0.100000,-0.100000)"
fill="#000000" stroke="none">
<path d="M1570 3407 c0 -660 -2 -645 74 -715 24 -22 59 -46 79 -53 21 -7 37
-19 37 -26 0 -44 66 -126 125 -156 41 -20 34 -20 678 -18 l567 1 0 220 0 220
-552 2 -553 3 -3 553 -2 552 -225 0 -225 0 0 -583z m185 -44 l0 -548 648 -3
647 -2 0 -55 0 -55 -641 0 -641 0 -40 22 c-21 12 -49 38 -61 58 -22 35 -22 38
-25 583 l-3 547 58 0 58 0 0 -547z m195 32 l0 -515 -60 0 -60 0 0 515 0 515
60 0 60 0 0 -515z m1100 -830 l0 -55 -550 0 c-532 0 -552 1 -590 20 -33 17
-70 62 -70 85 0 3 272 5 605 5 l605 0 0 -55z"/>
<path d="M3440 3889 l0 -90 -87 2 -88 2 -3 -682 -2 -681 220 0 220 0 0 275 0
275 280 0 280 0 0 215 0 215 -280 0 -280 0 0 60 0 60 550 0 550 0 0 220 0 220
-680 0 -680 0 0 -91z m1285 -34 l0 -50 -550 -2 -550 -2 -3 -190 -2 -191 -50 0
-50 0 0 245 0 245 603 -2 602 -3 0 -50z m-1285 -315 l0 -190 370 0 370 0 0
-50 0 -50 -367 -2 -368 -3 -3 -368 -2 -368 -53 3 -52 3 -3 608 -2 607 55 0 55
0 0 -190z m1288 133 l-3 -58 -512 -3 -513 -2 0 60 0 60 515 0 516 0 -3 -57z
m-548 -553 l0 -50 -277 -2 -278 -3 -3 -277 -2 -278 -50 0 -50 0 0 330 0 330
330 0 330 0 0 -50z"/>
</g>
</svg>
